<?xml version="1.0" encoding="UTF-8" standalone="no"?>
<!-- Created with Inkscape (http://www.inkscape.org/) -->

<svg
   xmlns:dc="http://purl.org/dc/elements/1.1/"
   xmlns:cc="http://creativecommons.org/ns#"
   xmlns:rdf="http://www.w3.org/1999/02/22-rdf-syntax-ns#"
   xmlns:svg="http://www.w3.org/2000/svg"
   xmlns="http://www.w3.org/2000/svg"
   xmlns:sodipodi="http://sodipodi.sourceforge.net/DTD/sodipodi-0.dtd"
   xmlns:inkscape="http://www.inkscape.org/namespaces/inkscape"
   width="210mm"
   height="297mm"
   id="svg5306"
   version="1.1"
   inkscape:version="0.48.4 r9939"
   sodipodi:docname="Nuevo documento 12">
  <defs
     id="defs5308">
    <inkscape:path-effect
       effect="spiro"
       id="path-effect5392"
       is_visible="true" />
  </defs>
  <sodipodi:namedview
     id="base"
     pagecolor="#ffffff"
     bordercolor="#666666"
     borderopacity="1.0"
     inkscape:pageopacity="0.0"
     inkscape:pageshadow="2"
     inkscape:zoom="2.8"
     inkscape:cx="169.02383"
     inkscape:cy="96.573223"
     inkscape:document-units="px"
     inkscape:current-layer="layer1"
     showgrid="false"
     showguides="true"
     inkscape:guide-bbox="true"
     inkscape:window-width="1305"
     inkscape:window-height="744"
     inkscape:window-x="55"
     inkscape:window-y="24"
     inkscape:window-maximized="1">
    <sodipodi:guide
       orientation="1,0"
       position="50.507627,21.71828"
       id="guide5314" />
    <sodipodi:guide
       orientation="0,1"
       position="50.507627,50.002551"
       id="guide5316" />
    <sodipodi:guide
       orientation="1,0"
       position="100.0051,35.355339"
       id="guide5318" />
    <sodipodi:guide
       orientation="1,0"
       position="150.89286,-36.607143"
       id="guide6128" />
  </sodipodi:namedview>
  <metadata
     id="metadata5311">
    <rdf:RDF>
      <cc:Work
         rdf:about="">
        <dc:format>image/svg+xml</dc:format>
        <dc:type
           rdf:resource="http://purl.org/dc/dcmitype/StillImage" />
        <dc:title></dc:title>
      </cc:Work>
    </rdf:RDF>
  </metadata>
  <g
     inkscape:label="Capa 1"
     inkscape:groupmode="layer"
     id="layer1">
    <rect
       style="fill:#f5c19d;fill-opacity:1;stroke:none"
       id="rect5357"
       width="9.0410585"
       height="12.240202"
       x="20.577347"
       y="1038.0353" />
    <rect
       style="fill:#ffccaa;fill-opacity:1;stroke:none"
       id="rect5908"
       width="21.441116"
       height="26.555511"
       x="14.580957"
       y="1011.4702"
       ry="9.2312593" />
    <path
       sodipodi:type="arc"
       style="fill:#ffccaa;fill-opacity:1;stroke:none"
       id="path5914"
       sodipodi:cx="34.376755"
       sodipodi:cy="1034.6213"
       sodipodi:rx="5.334868"
       sodipodi:ry="6.1871843"
       d="m 39.711623,1034.6213 a 5.334868,6.1871843 0 1 1 -10.669736,0 5.334868,6.1871843 0 1 1 10.669736,0 z"
       transform="matrix(1.9910904,0,0,1.9790976,-43.244067,-1016.5249)" />
    <path
       sodipodi:type="arc"
       style="fill:#ffccaa;fill-opacity:1;stroke:none"
       id="path5918"
       sodipodi:cx="23.075672"
       sodipodi:cy="1021.9944"
       sodipodi:rx="1.2311234"
       sodipodi:ry="1.767767"
       d="m 24.306796,1021.9944 a 1.2311234,1.767767 0 1 1 -2.462247,0 1.2311234,1.767767 0 1 1 2.462247,0 z"
       transform="matrix(1.5578439,0,0,1.5578439,-21.514871,-562.09761)" />
    <path
       transform="matrix(1.5578439,0,0,1.5578439,-0.02457662,-562.09761)"
       sodipodi:type="arc"
       style="fill:#ffccaa;fill-opacity:1;stroke:none"
       id="path5918-3"
       sodipodi:cx="23.075672"
       sodipodi:cy="1021.9944"
       sodipodi:rx="1.2311234"
       sodipodi:ry="1.767767"
       d="m 24.306796,1021.9944 a 1.2311234,1.767767 0 1 1 -2.462247,0 1.2311234,1.767767 0 1 1 2.462247,0 z" />
    <rect
       style="fill:#f5c19d;fill-opacity:1;stroke:none"
       id="rect5940"
       width="17.525747"
       height="3.7555981"
       x="16.126364"
       y="1048.6066"
       ry="1.877799"
       rx="7.1798234" />
    <path
       transform="matrix(0.61109127,0,0,0.61109127,12.368756,377.3247)"
       sodipodi:type="arc"
       style="fill:#1a1a1a;fill-opacity:1;stroke:none"
       id="path5995"
       sodipodi:cx="13.75"
       sodipodi:cy="1065.2194"
       sodipodi:rx="1.7857143"
       sodipodi:ry="1.7857143"
       d="m 15.535714,1065.2194 a 1.7857143,1.7857143 0 1 1 -3.571428,0 1.7857143,1.7857143 0 1 1 3.571428,0 z" />
    <path
       transform="matrix(0.61109127,0,0,0.61109127,20.891919,377.3247)"
       sodipodi:type="arc"
       style="fill:#1a1a1a;fill-opacity:1;stroke:none"
       id="path5995-5"
       sodipodi:cx="13.75"
       sodipodi:cy="1065.2194"
       sodipodi:rx="1.7857143"
       sodipodi:ry="1.7857143"
       d="m 15.535714,1065.2194 a 1.7857143,1.7857143 0 1 1 -3.571428,0 1.7857143,1.7857143 0 1 1 3.571428,0 z" />
    <rect
       style="fill:#f5c19d;fill-opacity:1;stroke:none"
       id="rect5357-6"
       width="9.0410585"
       height="12.240202"
       x="71.160217"
       y="1038.0353" />
    <rect
       style="fill:#ffccaa;fill-opacity:1;stroke:none"
       id="rect5908-7"
       width="21.441116"
       height="26.555511"
       x="65.163826"
       y="1011.4702"
       ry="9.2312593" />
    <path
       sodipodi:type="arc"
       style="fill:#ffccaa;fill-opacity:1;stroke:none"
       id="path5914-1"
       sodipodi:cx="34.376755"
       sodipodi:cy="1034.6213"
       sodipodi:rx="5.334868"
       sodipodi:ry="6.1871843"
       d="m 39.711623,1034.6213 a 5.334868,6.1871843 0 1 1 -10.669736,0 5.334868,6.1871843 0 1 1 10.669736,0 z"
       transform="matrix(1.9910904,0,0,1.9790976,7.3388029,-1016.5249)" />
    <path
       sodipodi:type="arc"
       style="fill:#ffccaa;fill-opacity:1;stroke:none"
       id="path5918-6"
       sodipodi:cx="23.075672"
       sodipodi:cy="1021.9944"
       sodipodi:rx="1.2311234"
       sodipodi:ry="1.767767"
       d="m 24.306796,1021.9944 a 1.2311234,1.767767 0 1 1 -2.462247,0 1.2311234,1.767767 0 1 1 2.462247,0 z"
       transform="matrix(1.5578439,0,0,1.5578439,29.067999,-562.0976)" />
    <path
       transform="matrix(1.5578439,0,0,1.5578439,50.558293,-562.0976)"
       sodipodi:type="arc"
       style="fill:#ffccaa;fill-opacity:1;stroke:none"
       id="path5918-3-8"
       sodipodi:cx="23.075672"
       sodipodi:cy="1021.9944"
       sodipodi:rx="1.2311234"
       sodipodi:ry="1.767767"
       d="m 24.306796,1021.9944 a 1.2311234,1.767767 0 1 1 -2.462247,0 1.2311234,1.767767 0 1 1 2.462247,0 z" />
    <rect
       style="fill:#f5c19d;fill-opacity:1;stroke:none"
       id="rect5940-6"
       width="17.525747"
       height="3.7555981"
       x="66.709236"
       y="1048.6066"
       ry="1.877799"
       rx="7.1798234" />
    <rect
       style="fill:#1a1a1a;fill-opacity:1;stroke:none"
       id="rect6083"
       width="2.96875"
       height="0.4017857"
       x="78.4375"
       y="1028.1658"
       rx="0.41738546" />
    <rect
       style="fill:#1a1a1a;fill-opacity:1;stroke:none"
       id="rect6083-1"
       width="2.96875"
       height="0.4017857"
       x="69.944191"
       y="1028.0095"
       rx="0.41738546" />
    <rect
       style="fill:#1a1a1a;fill-opacity:1;stroke:none"
       id="rect6083-1-8"
       width="2.96875"
       height="0.4017857"
       x="479.61411"
       y="910.86267"
       rx="0.41738546"
       transform="matrix(0.91452656,0.40452586,-0.40452586,0.91452656,0,0)" />
    <rect
       style="fill:#1a1a1a;fill-opacity:1;stroke:none"
       id="rect6083-1-1"
       width="2.96875"
       height="0.4017857"
       x="-170.44566"
       y="1016.8905"
       rx="0.41738546"
       inkscape:transform-center-x="5.094127"
       inkscape:transform-center-y="1.9025688"
       transform="matrix(0.97080285,-0.23987876,0.23987876,0.97080285,0,0)" />
    <rect
       style="fill:#f5c19d;fill-opacity:1;stroke:none"
       id="rect5357-4"
       width="9.0410585"
       height="12.240202"
       x="120.91023"
       y="1038.0353" />
    <rect
       style="fill:#ffccaa;fill-opacity:1;stroke:none"
       id="rect5908-6"
       width="21.441116"
       height="26.555511"
       x="114.91384"
       y="1011.4702"
       ry="9.2312593" />
    <path
       sodipodi:type="arc"
       style="fill:#ffccaa;fill-opacity:1;stroke:none"
       id="path5914-6"
       sodipodi:cx="34.376755"
       sodipodi:cy="1034.6213"
       sodipodi:rx="5.334868"
       sodipodi:ry="6.1871843"
       d="m 39.711623,1034.6213 a 5.334868,6.1871843 0 1 1 -10.669736,0 5.334868,6.1871843 0 1 1 10.669736,0 z"
       transform="matrix(1.9910904,0,0,1.9790976,57.088816,-1016.5249)" />
    <path
       sodipodi:type="arc"
       style="fill:#ffccaa;fill-opacity:1;stroke:none"
       id="path5918-1"
       sodipodi:cx="23.075672"
       sodipodi:cy="1021.9944"
       sodipodi:rx="1.2311234"
       sodipodi:ry="1.767767"
       d="m 24.306796,1021.9944 a 1.2311234,1.767767 0 1 1 -2.462247,0 1.2311234,1.767767 0 1 1 2.462247,0 z"
       transform="matrix(1.5578439,0,0,1.5578439,78.818012,-562.09761)" />
    <path
       transform="matrix(1.5578439,0,0,1.5578439,100.30831,-562.09761)"
       sodipodi:type="arc"
       style="fill:#ffccaa;fill-opacity:1;stroke:none"
       id="path5918-3-7"
       sodipodi:cx="23.075672"
       sodipodi:cy="1021.9944"
       sodipodi:rx="1.2311234"
       sodipodi:ry="1.767767"
       d="m 24.306796,1021.9944 a 1.2311234,1.767767 0 1 1 -2.462247,0 1.2311234,1.767767 0 1 1 2.462247,0 z" />
    <rect
       style="fill:#f5c19d;fill-opacity:1;stroke:none"
       id="rect5940-8"
       width="17.525747"
       height="3.7555981"
       x="116.45924"
       y="1048.6066"
       ry="1.877799"
       rx="7.1798234" />
    <path
       transform="matrix(0.61109127,0,0,0.61109127,112.70164,377.32468)"
       sodipodi:type="arc"
       style="fill:#1a1a1a;fill-opacity:1;stroke:none"
       id="path5995-7"
       sodipodi:cx="13.75"
       sodipodi:cy="1065.2194"
       sodipodi:rx="1.7857143"
       sodipodi:ry="1.7857143"
       d="m 15.535714,1065.2194 a 1.7857143,1.7857143 0 1 1 -3.571428,0 1.7857143,1.7857143 0 1 1 3.571428,0 z" />
    <path
       transform="matrix(0.61109127,0,0,0.61109127,121.2248,377.32468)"
       sodipodi:type="arc"
       style="fill:#1a1a1a;fill-opacity:1;stroke:none"
       id="path5995-5-0"
       sodipodi:cx="13.75"
       sodipodi:cy="1065.2194"
       sodipodi:rx="1.7857143"
       sodipodi:ry="1.7857143"
       d="m 15.535714,1065.2194 a 1.7857143,1.7857143 0 1 1 -3.571428,0 1.7857143,1.7857143 0 1 1 3.571428,0 z" />
    <path
       sodipodi:type="arc"
       style="fill:#1a1a1a;fill-opacity:1;stroke:none"
       id="path6197"
       sodipodi:cx="125.98214"
       sodipodi:cy="1037.1389"
       sodipodi:rx="2.5892856"
       sodipodi:ry="1.8303572"
       d="m 128.57143,1037.1389 a 2.5892856,1.8303572 0 1 1 -5.17858,0 2.5892856,1.8303572 0 1 1 5.17858,0 z" />
    <path
       sodipodi:type="arc"
       style="fill:#ffffff;fill-opacity:1;stroke:none"
       id="path6212"
       sodipodi:cx="122.52835"
       sodipodi:cy="1037.9833"
       sodipodi:rx="1.7204161"
       sodipodi:ry="0.77339804"
       d="m 124.24877,1037.9833 a 1.7204161,0.77339804 0 0 1 -3.43401,0.069 l 1.71359,-0.069 z"
       sodipodi:start="0"
       sodipodi:end="3.0525159"
       transform="matrix(-0.99929452,-0.03755618,0.03755618,-0.99929452,209.48384,2077.926)" />
    <rect
       style="fill:#f5c19d;fill-opacity:1;stroke:none"
       id="rect5357-4-7"
       width="9.0410585"
       height="12.240202"
       x="170.39877"
       y="1038.0353" />
    <rect
       style="fill:#ffccaa;fill-opacity:1;stroke:none"
       id="rect5908-6-2"
       width="21.441116"
       height="26.555511"
       x="164.40239"
       y="1011.4702"
       ry="9.2312593" />
    <path
       sodipodi:type="arc"
       style="fill:#ffccaa;fill-opacity:1;stroke:none"
       id="path5914-6-7"
       sodipodi:cx="34.376755"
       sodipodi:cy="1034.6213"
       sodipodi:rx="5.334868"
       sodipodi:ry="6.1871843"
       d="m 39.711623,1034.6213 a 5.334868,6.1871843 0 1 1 -10.669736,0 5.334868,6.1871843 0 1 1 10.669736,0 z"
       transform="matrix(1.9910904,0,0,1.9790976,106.57736,-1016.5249)" />
    <path
       sodipodi:type="arc"
       style="fill:#ffccaa;fill-opacity:1;stroke:none"
       id="path5918-1-6"
       sodipodi:cx="23.075672"
       sodipodi:cy="1021.9944"
       sodipodi:rx="1.2311234"
       sodipodi:ry="1.767767"
       d="m 24.306796,1021.9944 a 1.2311234,1.767767 0 1 1 -2.462247,0 1.2311234,1.767767 0 1 1 2.462247,0 z"
       transform="matrix(1.5578439,0,0,1.5578439,128.30656,-562.09759)" />
    <path
       transform="matrix(1.5578439,0,0,1.5578439,149.79685,-562.09759)"
       sodipodi:type="arc"
       style="fill:#ffccaa;fill-opacity:1;stroke:none"
       id="path5918-3-7-6"
       sodipodi:cx="23.075672"
       sodipodi:cy="1021.9944"
       sodipodi:rx="1.2311234"
       sodipodi:ry="1.767767"
       d="m 24.306796,1021.9944 a 1.2311234,1.767767 0 1 1 -2.462247,0 1.2311234,1.767767 0 1 1 2.462247,0 z" />
    <rect
       style="fill:#f5c19d;fill-opacity:1;stroke:none"
       id="rect5940-8-3"
       width="17.525747"
       height="3.7555981"
       x="165.94778"
       y="1048.6066"
       ry="1.877799"
       rx="7.1798234" />
    <path
       transform="matrix(0.61109127,0,0,0.61109127,162.19018,377.32468)"
       sodipodi:type="arc"
       style="fill:#1a1a1a;fill-opacity:1;stroke:none"
       id="path5995-7-5"
       sodipodi:cx="13.75"
       sodipodi:cy="1065.2194"
       sodipodi:rx="1.7857143"
       sodipodi:ry="1.7857143"
       d="m 15.535714,1065.2194 a 1.7857143,1.7857143 0 1 1 -3.571428,0 1.7857143,1.7857143 0 1 1 3.571428,0 z" />
    <path
       transform="matrix(0.61109127,0,0,0.61109127,170.71334,377.32468)"
       sodipodi:type="arc"
       style="fill:#1a1a1a;fill-opacity:1;stroke:none"
       id="path5995-5-0-2"
       sodipodi:cx="13.75"
       sodipodi:cy="1065.2194"
       sodipodi:rx="1.7857143"
       sodipodi:ry="1.7857143"
       d="m 15.535714,1065.2194 a 1.7857143,1.7857143 0 1 1 -3.571428,0 1.7857143,1.7857143 0 1 1 3.571428,0 z" />
    <path
       transform="matrix(1,0,0,0.41637141,49.488543,605.30076)"
       sodipodi:type="arc"
       style="fill:#1a1a1a;fill-opacity:1;stroke:none"
       id="path6197-9"
       sodipodi:cx="125.98214"
       sodipodi:cy="1037.1389"
       sodipodi:rx="2.5892856"
       sodipodi:ry="1.8303572"
       d="m 128.57143,1037.1389 a 2.5892856,1.8303572 0 1 1 -5.17858,0 2.5892856,1.8303572 0 1 1 5.17858,0 z" />
    <path
       sodipodi:type="arc"
       style="fill:#ffffff;fill-opacity:1;stroke:none"
       id="path6212-0"
       sodipodi:cx="122.52835"
       sodipodi:cy="1037.9833"
       sodipodi:rx="1.7204161"
       sodipodi:ry="0.77339804"
       d="m 124.24877,1037.9833 a 1.7204161,0.77339804 0 0 1 -3.43401,0.069 l 1.71359,-0.069 z"
       sodipodi:start="0"
       sodipodi:end="3.0525159"
       transform="matrix(-0.99929452,-0.01563732,0.03755618,-0.41607766,258.97238,1470.4897)" />
    <rect
       style="fill:#f5c19d;fill-opacity:1;stroke:none"
       id="rect5357-5"
       width="9.0410585"
       height="12.240202"
       x="18.631008"
       y="987.27765" />
    <rect
       style="fill:#ffccaa;fill-opacity:1;stroke:none"
       id="rect5908-73"
       width="21.441116"
       height="27.944471"
       x="14.402387"
       y="961.47021"
       ry="9.7140913" />
    <path
       sodipodi:type="arc"
       style="fill:#ffccaa;fill-opacity:1;stroke:none"
       id="path5914-5"
       sodipodi:cx="34.376755"
       sodipodi:cy="1034.6213"
       sodipodi:rx="5.334868"
       sodipodi:ry="6.1871843"
       d="m 39.711623,1034.6213 a 5.334868,6.1871843 0 1 1 -10.669736,0 5.334868,6.1871843 0 1 1 10.669736,0 z"
       transform="matrix(1.2325741,-1.3894186,1.442297,1.9814887,-1509.8312,-1024.3918)" />
    <path
       sodipodi:type="arc"
       style="fill:#ffd1b3;fill-opacity:1;stroke:none"
       id="path5918-39"
       sodipodi:cx="23.075672"
       sodipodi:cy="1021.9944"
       sodipodi:rx="1.2311234"
       sodipodi:ry="1.767767"
       d="m 24.306796,1021.9944 a 1.2311234,1.767767 0 1 1 -2.462247,0 1.2311234,1.767767 0 1 1 2.462247,0 z"
       transform="matrix(1.5578439,0,0,1.5578439,-21.567173,-611.21366)" />
    <rect
       style="fill:#f5c19d;fill-opacity:1;stroke:none"
       id="rect5940-9"
       width="17.525747"
       height="3.7555981"
       x="15.947793"
       y="998.60657"
       ry="1.877799"
       rx="7.1798234" />
    <path
       transform="matrix(0.61109127,0,0,0.61109127,21.218424,325.68329)"
       sodipodi:type="arc"
       style="fill:#1a1a1a;fill-opacity:1;stroke:none"
       id="path5995-5-01"
       sodipodi:cx="13.75"
       sodipodi:cy="1065.2194"
       sodipodi:rx="1.7857143"
       sodipodi:ry="1.7857143"
       d="m 15.535714,1065.2194 a 1.7857143,1.7857143 0 1 1 -3.571428,0 1.7857143,1.7857143 0 1 1 3.571428,0 z" />
    <path
       sodipodi:type="arc"
       style="fill:#000000;fill-opacity:1;stroke:none"
       id="path6337"
       sodipodi:cx="32.94643"
       sodipodi:cy="987.85327"
       sodipodi:rx="2.6785715"
       sodipodi:ry="1.6517857"
       d="m 32.00723,989.40019 a 2.6785715,1.6517857 0 0 1 1.297106,-3.18389 l -0.357906,1.63697 z"
       sodipodi:start="1.929045"
       sodipodi:end="4.8464079"
       transform="matrix(1.3821655,0,0,0.41384262,-11.299196,578.42638)" />
    <path
       transform="matrix(0.61109127,0,0,0.61109127,27.44571,325.3445)"
       sodipodi:type="arc"
       style="fill:#1a1a1a;fill-opacity:1;stroke:none"
       id="path5995-5-01-7"
       sodipodi:cx="13.75"
       sodipodi:cy="1065.2194"
       sodipodi:rx="1.7857143"
       sodipodi:ry="1.7857143"
       d="m 13.602814,1066.999 a 1.7857143,1.7857143 0 0 1 0.11797,-3.5651 l 0.02922,1.7855 z"
       sodipodi:start="1.6533143"
       sodipodi:end="4.6960272" />
    <rect
       style="fill:#f5c19d;fill-opacity:1;stroke:none"
       id="rect5357-5-3"
       width="9.0410585"
       height="12.240202"
       x="69.727028"
       y="987.27765" />
    <rect
       style="fill:#ffccaa;fill-opacity:1;stroke:none"
       id="rect5908-73-2"
       width="21.441116"
       height="27.944471"
       x="65.498405"
       y="961.47021"
       ry="9.7140913" />
    <path
       sodipodi:type="arc"
       style="fill:#ffccaa;fill-opacity:1;stroke:none"
       id="path5914-5-9"
       sodipodi:cx="34.376755"
       sodipodi:cy="1034.6213"
       sodipodi:rx="5.334868"
       sodipodi:ry="6.1871843"
       d="m 39.711623,1034.6213 a 5.334868,6.1871843 0 1 1 -10.669736,0 5.334868,6.1871843 0 1 1 10.669736,0 z"
       transform="matrix(1.2325741,-1.3894186,1.442297,1.9814887,-1458.7352,-1024.3918)" />
    <path
       sodipodi:type="arc"
       style="fill:#ffd1b3;fill-opacity:1;stroke:none"
       id="path5918-39-0"
       sodipodi:cx="23.075672"
       sodipodi:cy="1021.9944"
       sodipodi:rx="1.2311234"
       sodipodi:ry="1.767767"
       d="m 24.306796,1021.9944 a 1.2311234,1.767767 0 1 1 -2.462247,0 1.2311234,1.767767 0 1 1 2.462247,0 z"
       transform="matrix(1.5578439,0,0,1.5578439,29.528843,-611.21362)" />
    <rect
       style="fill:#f5c19d;fill-opacity:1;stroke:none"
       id="rect5940-9-8"
       width="17.525747"
       height="3.7555981"
       x="67.043808"
       y="998.60657"
       ry="1.877799"
       rx="7.1798234" />
    <path
       sodipodi:type="arc"
       style="fill:#000000;fill-opacity:1;stroke:none"
       id="path6337-6"
       sodipodi:cx="32.94643"
       sodipodi:cy="987.85327"
       sodipodi:rx="2.6785715"
       sodipodi:ry="1.6517857"
       d="m 32.00723,989.40019 a 2.6785715,1.6517857 0 0 1 1.297106,-3.18389 l -0.357906,1.63697 z"
       sodipodi:start="1.929045"
       sodipodi:end="4.8464079"
       transform="matrix(0.82361594,0,0,0.33010585,58.398942,661.27563)" />
    <rect
       style="fill:#1a1a1a;fill-opacity:1;stroke:none"
       id="rect6083-1-5"
       width="2.96875"
       height="0.4017857"
       x="79.280479"
       y="976.61224"
       rx="0.41738546" />
    <rect
       style="fill:#1a1a1a;fill-opacity:1;stroke:none"
       id="rect6083-1-8-5"
       width="2.96875"
       height="0.4017857"
       x="467.36087"
       y="860.08173"
       rx="0.41738546"
       transform="matrix(0.91452656,0.40452586,-0.40452586,0.91452656,0,0)" />
    <rect
       style="fill:#1a1a1a;fill-opacity:1;stroke:none"
       id="rect6083-1-54"
       width="2.96875"
       height="0.4017857"
       x="85.345978"
       y="976.75952"
       rx="0.41738546" />
    <rect
       style="fill:#1a1a1a;fill-opacity:1;stroke:none"
       id="rect6083-1-8-1"
       width="2.96875"
       height="0.4017857"
       x="314.15958"
       y="927.8136"
       rx="0.41738546"
       transform="matrix(-0.91452656,0.40452586,0.40452586,0.91452656,0,0)" />
  </g>
</svg>
